#N canvas 4 224 526 617 10;
#X obj 85 70 inlet;
#X floatatom 359 130 5 0 0 0 - - -;
#X obj 360 99 f \$1;
#X obj 360 69 loadbang;
#X obj 59 132 unpack 0 0 0;
#X text 127 71 note \, vel \, chan;
#X obj 356 237 print midi_listener;
#X obj 200 278 ==;
#X floatatom 357 204 5 0 0 0 - - -;
#X obj 143 440 spigot;
#X obj 156 300 &&;
#X text 349 48 /* note to listen for */;
#X obj 149 238 > -1;
#X text 71 229 set to 0 to;
#X text 72 241 only listen;
#X text 72 252 "note on"s;
#X obj 193 366 v \$0-match;
#X obj 142 366 t b b;
#X obj 195 401 v \$0-match;
#X obj 83 162 v \$0-vel;
#X obj 16 160 v \$0-note;
#X obj 200 139 b;
#X obj 203 163 t b b;
#X obj 202 194 v \$0-note;
#X obj 144 193 v \$0-vel;
#X text 48 13 === listens for incoming midi note data and sends it
to circular sampler if the note matches ===;
#X text 75 51 /* incoming midi note data */;
#X obj 143 460 bng 15 250 50 0 empty empty empty 17 7 0 10 -262144
-1 -1;
#X obj 226 443 tgl 15 0 empty empty empty 17 7 0 10 -262144 -1 -1 0
1;
#X obj 150 323 t b f;
#X obj 86 94 t b l;
#X obj 139 161 v \$0-chan;
#X obj 150 510 v \$0-vel;
#X obj 83 508 v \$0-note;
#X obj 206 509 v \$0-chan;
#X obj 143 480 t b b b;
#X obj 152 551 outlet;
#X obj 251 552 outlet;
#X obj 55 548 outlet;
#X obj 360 152 s \$0-note_match;
#X obj 357 182 r \$0-note_match;
#X obj 216 239 r \$0-note_match;
#X obj 274 72 inlet;
#X connect 0 0 30 0;
#X connect 1 0 39 0;
#X connect 2 0 1 0;
#X connect 3 0 2 0;
#X connect 4 0 20 0;
#X connect 4 1 19 0;
#X connect 4 2 31 0;
#X connect 7 0 10 1;
#X connect 9 0 27 0;
#X connect 10 0 29 0;
#X connect 12 0 10 0;
#X connect 17 0 9 0;
#X connect 17 1 18 0;
#X connect 18 0 9 1;
#X connect 18 0 28 0;
#X connect 21 0 22 0;
#X connect 22 0 24 0;
#X connect 22 1 23 0;
#X connect 23 0 7 0;
#X connect 24 0 12 0;
#X connect 27 0 35 0;
#X connect 29 0 17 0;
#X connect 29 1 16 0;
#X connect 30 0 21 0;
#X connect 30 1 4 0;
#X connect 32 0 36 0;
#X connect 33 0 38 0;
#X connect 34 0 37 0;
#X connect 35 0 33 0;
#X connect 35 1 32 0;
#X connect 35 2 34 0;
#X connect 40 0 6 0;
#X connect 40 0 8 0;
#X connect 41 0 7 1;
#X connect 42 0 39 0;
