#N canvas 517 345 923 293 10;
#X obj 346 32 inlet;
#X obj 615 27 loadbang;
#X obj 615 49 t b b;
#X obj 346 54 t l l;
#X obj 616 123 s \$0-note_rec;
#X obj 713 116 s \$0-note_play;
#X obj 150 180 daoxiaomian_midi_listener \$1;
#X obj 477 182 daoxiaomian_midi_listener \$1;
#X obj 315 128 r \$0-note_rec;
#X obj 637 153 r \$0-note_play;
#X obj 615 93 f \$2;
#X obj 713 94 f \$1;
#X obj 321 232 outlet;
#X obj 538 234 outlet;
#X connect 0 0 3 0;
#X connect 1 0 2 0;
#X connect 2 0 10 0;
#X connect 2 1 11 0;
#X connect 3 0 6 0;
#X connect 3 1 7 0;
#X connect 6 1 12 0;
#X connect 7 1 13 0;
#X connect 8 0 6 1;
#X connect 9 0 7 1;
#X connect 10 0 4 0;
#X connect 11 0 5 0;
