#N canvas 19 23 1410 847 10;
#X obj 58 66 adc~;
#X obj 60 89 +~;
#X obj 61 750 tabwrite~ \$0-buf;
#X obj 603 83 loadbang;
#X obj 708 91 table \$0-buf;
#X obj 603 105 bng 15 250 50 0 empty empty empty 17 7 0 10 -262144
-1 -1;
#X obj 684 210 s \$0-buf_size;
#X obj 1233 784 soundfiler;
#X floatatom 685 254 5 0 0 0 - - -;
#X obj 604 152 f \$0;
#X floatatom 604 175 5 0 0 0 - - -;
#X obj 634 274 pack 0 0;
#X msg 634 301 \; \$1-buf resize \$2;
#X obj 1322 101 tgl 15 0 empty empty empty 17 7 0 10 -262144 -1 -1
1 1;
#X obj 1101 243 s \$0-recording_status;
#X obj 181 549 r \$0-recording_status;
#X msg 1318 136 \; pd dsp \$1;
#X obj 179 596 moses 1;
#X msg 138 680 stop;
#X text 1089 37 /* recording on/off */;
#X obj 181 574 tgl 15 0 empty empty empty 17 7 0 10 -262144 -1 -1 0
1;
#X obj 426 607 f;
#X obj 464 698 mod \$1;
#X floatatom 464 720 5 0 0 0 - - -;
#X obj 428 516 bang~;
#X obj 504 665 r \$0-buf_size;
#X obj 685 232 r \$0-buf_size;
#X msg 229 722 start \$1;
#X obj 463 750 s \$0-buf_cur_idx;
#X obj 261 682 f;
#X obj 221 629 r \$0-buf_cur_idx;
#X msg 827 154 0;
#X floatatom 426 632 5 0 0 0 - - -;
#X text 72 521 /* write to array starting at last index */;
#X obj 185 123 snapshot~;
#X floatatom 186 146 10 0 0 0 - - -;
#X text 426 492 /* increment current index based on dsp cycle */;
#X obj 185 100 bang~;
#X obj 41 115 s~ \$0-input_mono;
#X obj 174 79 r~ \$0-input_mono;
#X obj 38 549 r~ \$0-input_mono;
#X obj 850 717 tabplay~ \$0-buf;
#X obj 1231 757 tabread4~ \$0-buf;
#X text 44 40 /* input signal */;
#X text 176 40 (monitoring);
#X obj 933 766 snapshot~;
#X floatatom 933 787 10 0 0 0 - - -;
#X obj 931 743 bang~;
#X obj 1145 351 bng 15 250 50 0 empty empty empty 17 7 0 10 -262144
-1 -1;
#X obj 848 778 dac~;
#X obj 1160 185 tgl 15 0 empty empty empty 17 7 0 10 -262144 -1 -1
0 1;
#X text 1279 74 /* dsp on/off */;
#X obj 1170 216 moses 1;
#X obj 415 545 spigot;
#X obj 221 655 t b f;
#X text 1105 290 /* play buffer */;
#X obj 309 684 < 64;
#X obj 309 706 moses 1;
#X obj 323 727 bng 15 250 50 0 empty empty empty 17 7 0 10 -262144
-1 -1;
#X text 343 727 <- @ top;
#X msg 878 128 64;
#X obj 878 150 s \$0-spc;
#X obj 493 608 +;
#X obj 827 177 s \$0-buf_cur_idx;
#X obj 507 578 r \$0-spc;
#X text 837 109 samples per dsp cycle;
#X obj 329 657 r \$0-spc;
#X text 1229 738 TODO:;
#X obj 1145 375 random;
#X obj 1233 394 * 0.75;
#X floatatom 1233 416 5 0 0 0 - - -;
#X obj 1235 364 r \$0-buf_size;
#X obj 1284 393 * 0.25;
#X floatatom 1284 416 5 0 0 0 - - -;
#X obj 1145 402 pack f f;
#X obj 1065 312 tgl 15 0 empty empty empty 17 7 0 10 -262144 -1 -1
0 1;
#X obj 777 361 f \$0;
#X obj 777 341 bng 15 250 50 0 empty empty empty 17 7 0 10 -262144
-1 -1;
#X msg 777 385 \; \$1-buf write buf.txt;
#X msg 614 398 \; \$1-buf read buf.txt;
#X obj 613 354 bng 15 250 50 0 empty empty empty 17 7 0 10 -262144
-1 -1;
#X obj 603 125 t b b b b;
#X obj 604 194 t f f;
#X obj 614 375 f \$0;
#X text 562 152 inst #;
#X text 566 319 load buf;
#X text 562 331 from file;
#X text 765 323 write buf to file;
#X text 640 69 /* setup the audio buffer and vars */;
#X obj 76 237 inlet;
#X obj 510 236 print circ_sampler;
#X floatatom 85 332 5 0 0 0 - - -;
#X text 153 353 <- hard-coded for now;
#X text 121 330 vel;
#X obj 148 387 s \$0-t_rec;
#X obj 1104 56 r \$0-t_rec;
#X obj 49 387 s \$0-t_play;
#X obj 1143 315 r \$0-t_play;
#X obj 38 485 outlet;
#X obj 41 456 r \$0-recording_status;
#X text 43 430 /* outlets for debugging atm */;
#X obj 202 455 r \$0-t_play;
#X obj 202 490 outlet;
#X text 1272 732 TODO: fx \, pitch \, rev;
#X text 516 8 === sampler that writes adc~ input to a circular buffer
and reads from it to dac~ ===;
#X text 967 311 manual testing;
#X obj 1082 138 del 1000;
#X msg 1082 160 0;
#X obj 94 355 moses 110;
#X msg 1198 137 1;
#X text 980 146 stop after 1s ->;
#X text 776 240 TODO: don't hard-code :(;
#X text 977 162 (bang the toggle;
#X text 984 174 directly for;
#X text 975 186 endless recording);
#X obj 1060 338 metro 100;
#X text 946 324 (can hook this to;
#X text 942 336 the rec toggle too;
#X text 949 348 for xtra glitch);
#X text 72 215 /* incoming data */;
#X text 29 408 -------------------------------------;
#X obj 162 237 inlet;
#X floatatom 76 259 5 0 0 0 - - -;
#X floatatom 162 259 5 0 0 0 - - -;
#X obj 164 292 s \$0-t_rec;
#X obj 63 300 s \$0-t_play;
#X text 199 257 rec note;
#X text 17 257 play note;
#X text 13 359 old vel ctrl;
#X obj 76 278 moses 1;
#X obj 1104 78 moses 1;
#X msg 1104 100 0;
#X obj 291 239 inlet;
#X obj 395 239 inlet;
#X floatatom 291 261 5 0 0 0 - - -;
#X floatatom 395 261 5 0 0 0 - - -;
#X obj 291 280 s \$0-pos_start;
#X obj 395 280 s \$0-pos_end;
#X obj 1167 691 -;
#X floatatom 1164 716 5 0 0 0 - - -;
#X obj 1067 473 r \$0-pos_start;
#X obj 1067 520 - 1;
#X obj 1067 542 / 126;
#X obj 1067 603 * \$1;
#X obj 1075 567 r \$0-buf_size;
#X floatatom 1066 625 5 0 0 0 - - -;
#X obj 1201 511 - 1;
#X obj 1201 533 / 126;
#X obj 1201 594 * \$1;
#X obj 1210 559 r \$0-buf_size;
#X floatatom 1200 616 5 0 0 0 - - -;
#X obj 1201 482 r \$0-pos_end;
#X text 1098 448 /* indexing w ctrl in */;
#X obj 1067 495 t f f;
#X obj 768 637 print poses;
#X obj 1135 635 t f b f;
#X obj 872 637 unpack 0 0 0;
#X obj 872 615 pack f f f;
#X obj 895 664 pack f f;
#X msg 664 153 44100;
#X obj 664 175 * 60;
#X text 699 174 # seconds for arr;
#X connect 0 0 1 0;
#X connect 0 1 1 1;
#X connect 1 0 38 0;
#X connect 3 0 5 0;
#X connect 5 0 81 0;
#X connect 8 0 11 1;
#X connect 9 0 10 0;
#X connect 10 0 82 0;
#X connect 11 0 12 0;
#X connect 13 0 16 0;
#X connect 15 0 20 0;
#X connect 17 0 18 0;
#X connect 18 0 2 0;
#X connect 20 0 17 0;
#X connect 20 0 53 1;
#X connect 21 0 32 0;
#X connect 21 0 62 0;
#X connect 22 0 23 0;
#X connect 23 0 28 0;
#X connect 24 0 53 0;
#X connect 25 0 22 1;
#X connect 26 0 8 0;
#X connect 27 0 2 0;
#X connect 29 0 27 0;
#X connect 30 0 54 0;
#X connect 30 0 56 0;
#X connect 31 0 63 0;
#X connect 34 0 35 0;
#X connect 37 0 34 0;
#X connect 39 0 34 0;
#X connect 40 0 2 0;
#X connect 41 0 45 0;
#X connect 41 0 49 0;
#X connect 41 0 49 1;
#X connect 45 0 46 0;
#X connect 47 0 45 0;
#X connect 48 0 68 0;
#X connect 48 0 157 0;
#X connect 50 0 14 0;
#X connect 50 0 52 0;
#X connect 52 1 13 0;
#X connect 53 0 21 0;
#X connect 54 1 29 0;
#X connect 56 0 57 0;
#X connect 57 1 58 0;
#X connect 60 0 61 0;
#X connect 62 0 21 1;
#X connect 62 0 22 0;
#X connect 64 0 62 1;
#X connect 66 0 56 1;
#X connect 68 0 74 0;
#X connect 69 0 70 0;
#X connect 69 0 68 1;
#X connect 71 0 69 0;
#X connect 71 0 72 0;
#X connect 72 0 73 0;
#X connect 73 0 74 1;
#X connect 75 0 115 0;
#X connect 76 0 78 0;
#X connect 77 0 76 0;
#X connect 80 0 83 0;
#X connect 81 0 9 0;
#X connect 81 1 159 0;
#X connect 81 2 31 0;
#X connect 81 3 60 0;
#X connect 82 0 90 0;
#X connect 82 1 11 0;
#X connect 83 0 79 0;
#X connect 89 0 122 0;
#X connect 91 0 96 0;
#X connect 91 0 108 0;
#X connect 95 0 130 0;
#X connect 97 0 48 0;
#X connect 99 0 98 0;
#X connect 101 0 102 0;
#X connect 106 0 107 0;
#X connect 107 0 50 0;
#X connect 108 1 94 0;
#X connect 109 0 50 0;
#X connect 115 0 48 0;
#X connect 121 0 123 0;
#X connect 122 0 129 0;
#X connect 123 0 124 0;
#X connect 129 1 125 0;
#X connect 130 0 131 0;
#X connect 130 1 109 0;
#X connect 131 0 50 0;
#X connect 132 0 134 0;
#X connect 133 0 135 0;
#X connect 134 0 136 0;
#X connect 135 0 137 0;
#X connect 138 0 139 0;
#X connect 139 0 157 2;
#X connect 140 0 153 0;
#X connect 141 0 142 0;
#X connect 142 0 143 0;
#X connect 143 0 145 0;
#X connect 144 0 143 1;
#X connect 145 0 155 0;
#X connect 146 0 147 0;
#X connect 147 0 148 0;
#X connect 148 0 150 0;
#X connect 149 0 148 1;
#X connect 150 0 138 0;
#X connect 151 0 146 0;
#X connect 153 1 141 0;
#X connect 155 0 157 1;
#X connect 155 1 138 0;
#X connect 155 2 138 1;
#X connect 156 1 158 0;
#X connect 156 2 158 1;
#X connect 157 0 154 0;
#X connect 157 0 156 0;
#X connect 158 0 41 0;
#X connect 159 0 160 0;
#X connect 160 0 6 0;
