#N canvas 4 224 470 377 10;
#X obj 84 72 inlet;
#X floatatom 318 123 5 0 0 0 - - -;
#X obj 319 145 s \$0-note;
#X obj 319 92 f \$1;
#X obj 319 62 loadbang;
#X obj 316 175 r \$0-note;
#X obj 87 99 unpack 0 0 0;
#X text 127 71 note \, vel \, chan;
#X obj 108 315 daoxiaomian_circ_sampler;
#X obj 315 230 print midi_listener;
#X obj 137 169 ==;
#X obj 150 142 r \$0-note;
#X floatatom 316 197 5 0 0 0 - - -;
#X obj 109 264 spigot;
#X obj 163 203 &&;
#X floatatom 109 286 5 0 0 0 - - -;
#X floatatom 163 225 5 0 0 0 - - -;
#X obj 86 287 bng 15 250 50 0 empty empty empty 17 7 0 10 -262144 -1
-1;
#X text 308 41 /* note to listen for */;
#X text 75 51 /* incoming midi data */;
#X obj 108 337 outlet;
#X obj 236 337 outlet;
#X text 263 314 /* outlets for debuggin */;
#X text 48 13 === listens for incoming midi data and sends it to circular
sampler if the note matches ===;
#X obj 188 170 > -1;
#X text 222 159 set to 0 to;
#X text 223 171 only listen;
#X text 223 182 "note on"s;
#X connect 0 0 6 0;
#X connect 1 0 2 0;
#X connect 3 0 1 0;
#X connect 4 0 3 0;
#X connect 5 0 9 0;
#X connect 5 0 12 0;
#X connect 6 0 10 0;
#X connect 6 1 13 0;
#X connect 6 1 24 0;
#X connect 8 0 20 0;
#X connect 8 1 21 0;
#X connect 10 0 14 1;
#X connect 11 0 10 1;
#X connect 13 0 15 0;
#X connect 13 0 17 0;
#X connect 14 0 16 0;
#X connect 15 0 8 0;
#X connect 16 0 13 1;
#X connect 24 0 14 0;
