#N canvas 79 43 631 754 10;
#X obj 362 493 textfile;
#X obj 497 188 f \$1;
#X obj 498 159 loadbang;
#X obj 99 46 inlet;
#X obj 459 76 inlet;
#X obj 459 98 s \$0-sessionDirname;
#X obj 60 211 r \$0-sessionDirname;
#X obj 344 304 pack s s;
#X obj 503 269 symbol;
#X msg 504 242 mappings_\$1.mmm;
#X obj 467 150 bng 15 250 50 0 empty empty empty 17 7 0 10 -262144
-1 -1;
#X msg 39 238 /Users/usdivad/Documents/music/live_performance_setups/lavandula/data/recorded/\$1/
;
#X obj 395 365 print mappings_path;
#X text 69 26 Velocity to trigger playback;
#X msg 344 326 read \$1\$2 cr;
#X msg 272 355 rewind;
#X msg 288 455 bang;
#X obj 45 365 random 5;
#X text 440 56 Session directory name;
#X obj 146 97 s \$0-vel;
#X obj 409 520 print samplePath;
#X obj 45 450 until 5;
#X obj 121 121 s \$0-bangRewind;
#X obj 230 333 r \$0-bangRewind;
#X obj 79 142 s \$0-bangSampleIdx;
#X obj 50 332 r \$0-bangSampleIdx;
#X obj 371 685 outlet;
#X text 367 711 ^ Sample path we've chosen;
#X obj 284 572 + 1;
#X obj 235 529 f;
#X floatatom 221 580 5 0 0 0 - - -, f 5;
#X obj 235 551 t f f;
#X obj 221 599 s \$0-curIdx;
#X obj 401 560 r \$0-curIdx;
#X obj 487 545 r \$0-sampleIdx;
#X obj 469 624 tgl 15 0 empty empty empty 17 7 0 10 -262144 -1 -1 0
1;
#X obj 383 648 spigot;
#X obj 466 598 >= 5;
#X obj 109 417 s \$0-sampleIdx;
#X obj 45 387 t f f;
#X text 104 364 <- TODO: don't hard-;
#X text 158 376 code this!;
#X obj 525 568 print sampleIdx;
#X obj 401 582 print curIdx;
#X obj 99 68 t b b b f;
#X obj 44 164 s \$0-bangCurIdx;
#X obj 117 471 r \$0-bangCurIdx;
#X obj 220 84 print ----------;
#X msg 169 500 -1;
#X obj 45 409 + 1;
#X obj 288 477 t b b;
#X connect 0 0 20 0;
#X connect 0 0 36 0;
#X connect 1 0 9 0;
#X connect 2 0 1 0;
#X connect 3 0 44 0;
#X connect 4 0 5 0;
#X connect 6 0 11 0;
#X connect 7 0 14 0;
#X connect 8 0 7 1;
#X connect 9 0 8 0;
#X connect 10 0 1 0;
#X connect 11 0 7 0;
#X connect 14 0 12 0;
#X connect 14 0 0 0;
#X connect 15 0 0 0;
#X connect 16 0 50 0;
#X connect 17 0 39 0;
#X connect 21 0 16 0;
#X connect 23 0 15 0;
#X connect 25 0 17 0;
#X connect 28 0 29 1;
#X connect 29 0 31 0;
#X connect 30 0 32 0;
#X connect 31 0 30 0;
#X connect 31 1 28 0;
#X connect 33 0 37 0;
#X connect 33 0 43 0;
#X connect 34 0 42 0;
#X connect 34 0 37 1;
#X connect 35 0 36 1;
#X connect 36 0 26 0;
#X connect 37 0 35 0;
#X connect 39 0 49 0;
#X connect 39 1 38 0;
#X connect 44 0 45 0;
#X connect 44 1 24 0;
#X connect 44 2 22 0;
#X connect 44 3 19 0;
#X connect 44 3 47 0;
#X connect 46 0 48 0;
#X connect 48 0 29 0;
#X connect 49 0 21 0;
#X connect 50 0 0 0;
#X connect 50 1 29 0;
