#N canvas 329 56 1111 791 10;
#X obj 56 102 adc~;
#X obj 74 194 bonk~;
#X obj 60 137 +~;
#X floatatom 134 250 5 0 0 0 - - -, f 5;
#X obj 101 221 unpack 0 0 0;
#X obj 527 180 vsl 15 128 0 127 0 0 empty empty empty 0 -9 0 10 -203904
-1 -1 6000 1;
#X msg 527 150 60;
#X obj 537 53 loadbang;
#X obj 134 295 moses 60;
#X obj 68 438 timer;
#X obj 179 353 spigot;
#X obj 570 174 s \$0-isRecording;
#X obj 537 75 bng 15 250 50 0 empty empty empty 17 7 0 10 -262144 -1
-1;
#X msg 569 150 0;
#X obj 179 378 bng 15 250 50 0 empty empty empty 17 7 0 10 -262144
-1 -1;
#X obj 527 320 s \$0-velThreshold;
#X obj 179 273 r \$0-velThresh;
#X msg 121 437 1;
#X obj 119 456 s \$0-isRecording;
#X floatatom 68 460 5 0 0 0 - - -, f 5;
#X obj 510 460 delay;
#X obj 706 226 s \$0-maxSampleSize;
#X obj 537 434 r \$0-maxSampleSize;
#X msg 508 481 0;
#X obj 508 505 s \$0-isRecording;
#X msg 706 204 2000;
#X msg 571 199 1;
#X obj 571 221 s \$0-canRecord;
#X obj 706 165 s \$0-minSampleSize;
#X obj 212 307 r \$0-canRecord;
#X text 501 33 == Setting initial values ==;
#X msg 230 434 0;
#X obj 230 456 s \$0-canRecord;
#X obj 157 317 bng 15 250 50 0 empty empty empty 17 7 0 10 -262144
-1 -1;
#X obj 334 457 delay;
#X msg 334 483 1;
#X obj 334 505 s \$0-canRecord;
#X obj 361 432 r \$0-minSampleSize;
#X text 884 10 === Monitoring values ===;
#X obj 889 35 r \$0-velThreshold;
#X floatatom 889 57 5 0 0 0 - - -, f 5;
#X obj 888 78 r \$0-isRecording;
#X obj 998 78 r \$0-canRecord;
#X obj 890 107 tgl 15 0 empty empty empty 17 7 0 10 -262144 -1 -1 0
1;
#X obj 1001 109 tgl 15 0 empty empty empty 17 7 0 10 -262144 -1 -1
1 1;
#X text 359 485 re-enable recording;
#X text 544 484 turn recording off;
#X text 176 247 <- velocity;
#X text 548 262 <- user can change this;
#X obj 24 622 write_sample;
#X obj 61 499 r \$0-isRecording;
#X obj 180 400 t b b b b b;
#X obj 96 524 r \$0-canRecord;
#X msg 706 143 500;
#X obj 365 171 construct_session_dirname;
#X obj 365 193 s \$0-sessionDirname;
#X obj 115 553 r \$0-sessionDirname;
#X obj 396 54 tgl 15 0 empty empty empty 17 7 0 10 -203904 -45076 -1
0 1;
#X msg 340 117 \; pd dsp \$1;
#X text 16 60 == Read input audio and;
#X text 15 74 collect into sample files ==;
#X text 344 17 == On/off (starts;
#X text 351 31 new session) ==;
#X obj 142 580 r \$0-analysisMode;
#X obj 846 170 s \$0-analysisMode;
#X obj 403 74 t f b f;
#X obj 416 102 spigot;
#X msg 846 148 0;
#X connect 0 0 2 0;
#X connect 0 1 2 1;
#X connect 1 1 4 0;
#X connect 2 0 1 0;
#X connect 2 0 49 0;
#X connect 3 0 8 0;
#X connect 4 1 3 0;
#X connect 5 0 15 0;
#X connect 6 0 5 0;
#X connect 7 0 12 0;
#X connect 8 1 10 0;
#X connect 8 1 33 0;
#X connect 9 0 19 0;
#X connect 10 0 14 0;
#X connect 12 0 6 0;
#X connect 12 0 13 0;
#X connect 12 0 25 0;
#X connect 12 0 26 0;
#X connect 12 0 53 0;
#X connect 12 0 54 0;
#X connect 12 0 67 0;
#X connect 13 0 11 0;
#X connect 14 0 51 0;
#X connect 16 0 8 1;
#X connect 17 0 18 0;
#X connect 20 0 23 0;
#X connect 22 0 20 1;
#X connect 23 0 24 0;
#X connect 25 0 21 0;
#X connect 26 0 27 0;
#X connect 29 0 10 1;
#X connect 31 0 32 0;
#X connect 34 0 35 0;
#X connect 35 0 36 0;
#X connect 37 0 34 1;
#X connect 39 0 40 0;
#X connect 41 0 43 0;
#X connect 42 0 44 0;
#X connect 50 0 49 1;
#X connect 51 0 9 0;
#X connect 51 1 17 0;
#X connect 51 2 31 0;
#X connect 51 3 34 0;
#X connect 51 4 20 0;
#X connect 52 0 49 2;
#X connect 53 0 28 0;
#X connect 54 0 55 0;
#X connect 56 0 49 3;
#X connect 57 0 65 0;
#X connect 63 0 49 4;
#X connect 65 0 58 0;
#X connect 65 1 66 0;
#X connect 65 2 66 1;
#X connect 66 0 54 0;
#X connect 67 0 64 0;
