#N canvas 345 23 1411 594 10;
#X obj 197 118 symbol;
#X obj 47 44 inlet;
#X obj 251 42 inlet;
#X text 241 19 Session dir name;
#X obj 179 192 r \$0-session_dirname;
#X obj 197 162 s \$0-session_dirname;
#X msg 276 89 2017414_232220305;
#X msg 85 189 60;
#X obj 69 266 playback_sample_file;
#X obj 398 556 outlet~;
#X text 22 22 MIDI data (note \, vel \, chan);
#X obj 133 340 r \$0-session_dirname;
#X obj 31 341 r \$0-midi_data;
#X obj 39 88 s \$0-midi_data;
#X obj 75 373 midi_trigger_sample 48 0;
#X obj 381 337 r \$0-session_dirname;
#X obj 279 338 r \$0-midi_data;
#X obj 620 335 r \$0-session_dirname;
#X obj 518 336 r \$0-midi_data;
#X obj 861 334 r \$0-session_dirname;
#X obj 759 335 r \$0-midi_data;
#X obj 133 428 r \$0-session_dirname;
#X obj 31 429 r \$0-midi_data;
#X obj 381 425 r \$0-session_dirname;
#X obj 279 426 r \$0-midi_data;
#X obj 620 423 r \$0-session_dirname;
#X obj 518 424 r \$0-midi_data;
#X obj 861 422 r \$0-session_dirname;
#X obj 759 423 r \$0-midi_data;
#X obj 323 370 midi_trigger_sample 49 1;
#X obj 562 368 midi_trigger_sample 50 2;
#X obj 803 367 midi_trigger_sample 51 3;
#X obj 75 461 midi_trigger_sample 44 4;
#X obj 323 458 midi_trigger_sample 45 5;
#X obj 562 456 midi_trigger_sample 46 6;
#X obj 803 455 midi_trigger_sample 47 7;
#X obj 69 233 choose_mapped_sample 0;
#X connect 0 0 5 0;
#X connect 1 0 13 0;
#X connect 2 0 0 0;
#X connect 4 0 36 1;
#X connect 6 0 0 0;
#X connect 7 0 36 0;
#X connect 11 0 14 1;
#X connect 12 0 14 0;
#X connect 14 0 9 0;
#X connect 15 0 29 1;
#X connect 16 0 29 0;
#X connect 17 0 30 1;
#X connect 18 0 30 0;
#X connect 19 0 31 1;
#X connect 20 0 31 0;
#X connect 21 0 32 1;
#X connect 22 0 32 0;
#X connect 23 0 33 1;
#X connect 24 0 33 0;
#X connect 25 0 34 1;
#X connect 26 0 34 0;
#X connect 27 0 35 1;
#X connect 28 0 35 0;
#X connect 29 0 9 0;
#X connect 30 0 9 0;
#X connect 31 0 9 0;
#X connect 32 0 9 0;
#X connect 33 0 9 0;
#X connect 34 0 9 0;
#X connect 35 0 9 0;
#X connect 36 0 8 0;
