#N canvas 81 95 634 704 10;
#X obj 364 452 textfile;
#X obj 499 147 f \$1;
#X obj 500 118 loadbang;
#X obj 101 33 inlet;
#X obj 461 35 inlet;
#X obj 461 57 s \$0-sessionDirname;
#X obj 62 170 r \$0-sessionDirname;
#X obj 346 263 pack s s;
#X obj 505 228 symbol;
#X msg 506 201 mappings_\$1.mmm;
#X obj 469 109 bng 15 250 50 0 empty empty empty 17 7 0 10 -262144
-1 -1;
#X msg 41 197 /Users/usdivad/Documents/music/live_performance_setups/lavandula/data/recorded/\$1/
;
#X obj 397 324 print mappings_path;
#X text 71 13 Velocity to trigger playback;
#X msg 346 285 read \$1\$2 cr;
#X msg 274 314 rewind;
#X msg 279 408 bang;
#X obj 49 343 random 5;
#X text 110 343 <- TODO: don't hard-code this;
#X text 442 15 Session directory name;
#X obj 289 93 s \$0-vel;
#X obj 411 479 print samplePath;
#X obj 46 369 until 5;
#X obj 101 55 t b b f;
#X obj 156 94 s \$0-bangRewind;
#X obj 232 292 r \$0-bangRewind;
#X obj 29 94 s \$0-bangSampleIdx;
#X obj 54 310 r \$0-bangSampleIdx;
#X obj 115 371 print sampleIdx;
#X obj 358 613 outlet;
#X text 354 639 ^ Sample path we've chosen;
#X connect 0 0 21 0;
#X connect 0 0 29 0;
#X connect 1 0 9 0;
#X connect 2 0 1 0;
#X connect 3 0 23 0;
#X connect 4 0 5 0;
#X connect 6 0 11 0;
#X connect 7 0 14 0;
#X connect 8 0 7 1;
#X connect 9 0 8 0;
#X connect 10 0 1 0;
#X connect 11 0 7 0;
#X connect 14 0 12 0;
#X connect 14 0 0 0;
#X connect 15 0 0 0;
#X connect 16 0 0 0;
#X connect 17 0 22 0;
#X connect 17 0 28 0;
#X connect 22 0 16 0;
#X connect 23 0 26 0;
#X connect 23 1 24 0;
#X connect 23 2 20 0;
#X connect 25 0 15 0;
#X connect 27 0 17 0;
