#N canvas 764 134 450 300 10;
#X obj 85 244 play_mapped_sample 0;
#X obj 197 118 symbol;
#X obj 47 44 inlet;
#X obj 251 42 inlet;
#X text 241 19 Session dir name;
#X obj 195 203 r \$0-session_dirname;
#X obj 197 162 s \$0-session_dirname;
#X msg 276 89 20171009_8702891;
#X obj 90 78 bng 15 250 50 0 empty empty empty 17 7 0 10 -262144 -1
-1;
#X text 22 22 MIDI info (velocity);
#X connect 1 0 6 0;
#X connect 2 0 8 0;
#X connect 2 0 0 0;
#X connect 3 0 1 0;
#X connect 5 0 0 1;
#X connect 7 0 1 0;
