#N canvas 188 303 580 328 10;
#X obj 240 53 inlet;
#X text 209 33 Sample file path;
#X obj 260 237 soundfiler;
#X obj 300 122 f \$0;
#X obj 240 75 symbol;
#X obj 240 152 pack s f;
#X obj 240 97 t s b;
#X msg 240 174 read \$1 \$2-buf;
#X obj 240 196 print cmd;
#X connect 0 0 4 0;
#X connect 3 0 5 1;
#X connect 4 0 6 0;
#X connect 5 0 7 0;
#X connect 6 0 5 0;
#X connect 6 1 3 0;
#X connect 7 0 8 0;
