#N canvas 62 169 1175 553 10;
#X obj 56 41 inlet~;
#X obj 190 43 inlet;
#X text 48 23 audio in;
#X text 170 24 recording on/off;
#X obj 368 46 inlet;
#X text 354 22 bang from onset;
#X obj 385 176 s \$0-filename;
#X obj 427 68 tgl 15 0 empty empty empty 17 7 0 10 -262144 -1 -1 0
1;
#X obj 191 75 tgl 15 0 empty empty empty 17 7 0 10 -262144 -1 -1 1
1;
#X obj 229 196 r \$0-filename;
#X obj 41 336 tabwrite~;
#X obj 120 334 writesf~;
#X obj 395 117 spigot;
#X obj 429 90 == 0;
#X obj 229 219 symbol;
#X obj 191 95 moses 1;
#X obj 170 117 bng 15 250 50 0 empty empty empty 17 7 0 10 -262144
-1 -1;
#X obj 236 117 bng 15 250 50 0 empty empty empty 17 7 0 10 -262144
-1 -1;
#X msg 218 166 start;
#X text 357 250 <- change dirpath as needed;
#X obj 253 506 pyext sample_analysis collection_updater;
#X obj 340 452 r \$0-filename;
#X obj 160 139 t b b;
#X obj 47 171 s \$0-bang_updater;
#X obj 216 449 r \$0-bang_updater;
#X msg 144 447 reload;
#X msg 165 167 stop;
#X obj 236 137 t b b;
#X obj 266 166 s \$0-bang_updater;
#X text 174 415 update sample collection upon new sample recording
;
#X obj 541 40 inlet;
#X text 519 20 session dir path;
#X obj 523 75 s \$0-session_dirname;
#X obj 443 450 r \$0-session_dirname;
#X obj 385 149 construct_sample_filename;
#X obj 319 195 r \$0-session_dirname;
#X obj 319 217 symbol;
#X obj 258 245 pack s s;
#X obj 274 267 print filename;
#X msg 162 297 open ../data/recorded/\$2/\$1;
#X obj 700 46 inlet;
#X obj 702 73 s \$0-analysis_mode;
#X text 714 29 analysis mode;
#X obj 582 449 r \$0-analysis_mode;
#X obj 899 43 inlet;
#X obj 1021 73 s \$0-bang_map;
#X obj 833 447 r \$0-bang_map;
#X obj 1020 43 inlet;
#X obj 899 65 s \$0-map_samples;
#X obj 721 447 r \$0-map_samples;
#X connect 0 0 11 0;
#X connect 1 0 8 0;
#X connect 4 0 7 0;
#X connect 4 0 12 0;
#X connect 7 0 13 0;
#X connect 8 0 15 0;
#X connect 9 0 14 0;
#X connect 12 0 34 0;
#X connect 13 0 12 1;
#X connect 14 0 37 0;
#X connect 15 0 16 0;
#X connect 15 1 17 0;
#X connect 16 0 22 0;
#X connect 17 0 27 0;
#X connect 18 0 11 0;
#X connect 21 0 20 2;
#X connect 22 0 23 0;
#X connect 22 1 26 0;
#X connect 24 0 20 1;
#X connect 25 0 20 0;
#X connect 26 0 11 0;
#X connect 27 0 28 0;
#X connect 27 1 18 0;
#X connect 30 0 32 0;
#X connect 33 0 20 3;
#X connect 34 0 6 0;
#X connect 35 0 36 0;
#X connect 36 0 37 1;
#X connect 37 0 38 0;
#X connect 37 0 39 0;
#X connect 39 0 11 0;
#X connect 40 0 41 0;
#X connect 43 0 20 4;
#X connect 44 0 48 0;
#X connect 46 0 20 6;
#X connect 47 0 45 0;
#X connect 49 0 20 5;
