#N canvas 196 51 1111 791 10;
#X obj 56 102 adc~;
#X obj 74 194 bonk~;
#X obj 60 137 +~;
#X floatatom 134 250 5 0 0 0 - - -, f 5;
#X obj 101 221 unpack 0 0 0;
#X obj 501 105 vsl 15 128 0 127 0 0 empty empty empty 0 -9 0 10 -262144
-1 -1 6000 1;
#X msg 501 75 60;
#X obj 501 27 loadbang;
#X obj 134 295 moses 60;
#X obj 68 438 timer;
#X obj 179 353 spigot;
#X obj 544 99 s \$0-isRecording;
#X obj 501 48 bng 15 250 50 0 empty empty empty 17 7 0 10 -262144 -1
-1;
#X msg 543 75 0;
#X obj 179 378 bng 15 250 50 0 empty empty empty 17 7 0 10 -262144
-1 -1;
#X obj 501 245 s \$0-velThreshold;
#X obj 179 273 r \$0-velThresh;
#X obj 234 136 cputime;
#X obj 225 93 bng 15 250 50 0 empty empty empty 17 7 0 10 -262144 -1
-1;
#X obj 234 158 print;
#X obj 262 91 bng 15 250 50 0 empty empty empty 17 7 0 10 -262144 -1
-1;
#X msg 121 437 1;
#X obj 119 456 s \$0-isRecording;
#X floatatom 68 460 5 0 0 0 - - -, f 5;
#X obj 510 460 delay;
#X obj 680 151 s \$0-maxSampleSize;
#X obj 537 434 r \$0-maxSampleSize;
#X msg 508 481 0;
#X obj 508 505 s \$0-isRecording;
#X msg 680 129 2000;
#X msg 545 124 1;
#X obj 545 146 s \$0-canRecord;
#X msg 680 68 250;
#X obj 680 90 s \$0-minSampleSize;
#X obj 212 307 r \$0-canRecord;
#X text 491 6 == Setting initial values ==;
#X text 11 56 == Read input audio and collect into sample files ==
;
#X msg 230 434 0;
#X obj 230 456 s \$0-canRecord;
#X obj 157 317 bng 15 250 50 0 empty empty empty 17 7 0 10 -262144
-1 -1;
#X obj 180 400 t b b b b b;
#X obj 334 457 delay;
#X msg 334 483 1;
#X obj 334 505 s \$0-canRecord;
#X obj 361 432 r \$0-minSampleSize;
#X text 884 10 === Monitoring values ===;
#X obj 889 35 r \$0-velThreshold;
#X floatatom 889 57 5 0 0 0 - - -, f 5;
#X obj 888 78 r \$0-isRecording;
#X obj 998 78 r \$0-canRecord;
#X obj 890 107 tgl 15 0 empty empty empty 17 7 0 10 -262144 -1 -1 0
1;
#X obj 1001 109 tgl 15 0 empty empty empty 17 7 0 10 -262144 -1 -1
1 1;
#X text 359 485 re-enable recording;
#X text 544 484 turn recording off;
#X text 176 247 <- velocity;
#X text 522 187 <- user can change this;
#X obj 195 626 write_sample;
#X connect 0 0 2 0;
#X connect 0 1 2 1;
#X connect 1 1 4 0;
#X connect 2 0 1 0;
#X connect 3 0 8 0;
#X connect 4 1 3 0;
#X connect 5 0 15 0;
#X connect 6 0 5 0;
#X connect 7 0 12 0;
#X connect 8 1 10 0;
#X connect 8 1 39 0;
#X connect 9 0 23 0;
#X connect 10 0 14 0;
#X connect 12 0 6 0;
#X connect 12 0 13 0;
#X connect 12 0 29 0;
#X connect 12 0 30 0;
#X connect 12 0 32 0;
#X connect 13 0 11 0;
#X connect 14 0 40 0;
#X connect 16 0 8 1;
#X connect 17 0 19 0;
#X connect 18 0 17 0;
#X connect 20 0 17 1;
#X connect 21 0 22 0;
#X connect 24 0 27 0;
#X connect 26 0 24 1;
#X connect 27 0 28 0;
#X connect 29 0 25 0;
#X connect 30 0 31 0;
#X connect 32 0 33 0;
#X connect 34 0 10 1;
#X connect 37 0 38 0;
#X connect 40 0 9 0;
#X connect 40 1 21 0;
#X connect 40 2 37 0;
#X connect 40 3 41 0;
#X connect 40 4 24 0;
#X connect 41 0 42 0;
#X connect 42 0 43 0;
#X connect 44 0 41 1;
#X connect 46 0 47 0;
#X connect 48 0 50 0;
#X connect 49 0 51 0;
