#N canvas 337 181 439 504 10;
#X obj 330 155 zexy/date;
#X obj 158 153 zexy/time;
#X obj 34 69 inlet;
#X obj 34 93 bng 15 250 50 0 empty empty empty 17 7 0 10 -262144 -1
-1;
#X obj 341 200 pack f f f;
#X obj 152 200 pack f f f f;
#X obj 34 113 t b b b;
#X obj 341 222 s \$0-curDate;
#X obj 152 222 s \$0-curTime;
#X obj 150 283 r \$0-curDate;
#X obj 251 283 r \$0-curTime;
#X obj 150 305 unpack f f f;
#X obj 251 305 unpack f f f f;
#X obj 167 390 pack f f f f f f f f;
#X obj 332 327 int;
#X obj 168 466 outlet;
#X text 89 26 ==== Construct session dir name in format %Y%m%d_%H%M%S%f.wav
====;
#X obj 196 442 print session dirname;
#X msg 168 415 \$2\$3\$4_\$5\$6\$7\$8;
#X connect 0 0 4 0;
#X connect 0 1 4 1;
#X connect 0 2 4 2;
#X connect 1 0 5 0;
#X connect 1 1 5 1;
#X connect 1 2 5 2;
#X connect 1 3 5 3;
#X connect 2 0 3 0;
#X connect 3 0 6 0;
#X connect 4 0 7 0;
#X connect 5 0 8 0;
#X connect 6 0 13 0;
#X connect 6 1 1 0;
#X connect 6 2 0 0;
#X connect 9 0 11 0;
#X connect 10 0 12 0;
#X connect 11 0 13 1;
#X connect 11 1 13 2;
#X connect 11 2 13 3;
#X connect 12 0 13 4;
#X connect 12 1 13 5;
#X connect 12 2 13 6;
#X connect 12 3 14 0;
#X connect 13 0 18 0;
#X connect 14 0 13 7;
#X connect 18 0 15 0;
