#N canvas 362 107 536 606 10;
#X obj 56 41 inlet~;
#X obj 190 43 inlet;
#X text 48 23 audio in;
#X text 170 24 recording on/off;
#X obj 368 46 inlet;
#X text 354 22 bang from onset;
#X obj 385 149 construct_sample_filename;
#X obj 385 176 s \$0-filename;
#X obj 427 68 tgl 15 0 empty empty empty 17 7 0 10 -262144 -1 -1 1
1;
#X obj 191 75 tgl 15 0 empty empty empty 17 7 0 10 -262144 -1 -1 0
1;
#X obj 220 198 r \$0-filename;
#X obj 220 308 tabwrite~;
#X obj 137 287 writesf~;
#X obj 395 117 spigot;
#X obj 429 90 == 0;
#X obj 222 224 symbol;
#X obj 191 95 moses 1;
#X obj 170 117 bng 15 250 50 0 empty empty empty 17 7 0 10 -262144
-1 -1;
#X obj 236 117 bng 15 250 50 0 empty empty empty 17 7 0 10 -262144
-1 -1;
#X msg 218 166 start;
#X text 333 250 <- change dirpath as needed;
#X obj 275 223 print filename;
#X msg 179 250 open ../data/recorded/\$1;
#X obj 146 469 pyext sample_analysis collection_updater;
#X obj 384 439 r \$0-filename;
#X obj 160 139 t b b;
#X obj 47 171 s \$0-bang_updater;
#X obj 260 436 r \$0-bang_updater;
#X msg 144 435 reload;
#X msg 165 167 stop;
#X obj 236 137 t b b;
#X obj 266 166 s \$0-bang_updater;
#X text 147 405 update sample collection upon new sample recording
;
#X connect 0 0 12 0;
#X connect 1 0 9 0;
#X connect 4 0 8 0;
#X connect 4 0 13 0;
#X connect 6 0 7 0;
#X connect 8 0 14 0;
#X connect 9 0 16 0;
#X connect 10 0 15 0;
#X connect 10 0 21 0;
#X connect 13 0 6 0;
#X connect 14 0 13 1;
#X connect 15 0 22 0;
#X connect 16 0 17 0;
#X connect 16 1 18 0;
#X connect 17 0 25 0;
#X connect 18 0 30 0;
#X connect 19 0 12 0;
#X connect 22 0 12 0;
#X connect 24 0 23 2;
#X connect 25 0 26 0;
#X connect 25 1 29 0;
#X connect 27 0 23 1;
#X connect 28 0 23 0;
#X connect 29 0 12 0;
#X connect 30 0 31 0;
#X connect 30 1 19 0;
