#N canvas 535 188 797 461 10;
#X obj 318 305 packOSC;
#X obj 298 26 notein;
#X floatatom 277 50 5 0 0 0 - - -, f 5;
#X floatatom 381 56 5 0 0 0 - - -, f 5;
#X floatatom 409 89 5 0 0 0 - - -, f 5;
#X obj 320 62 moses 1;
#X obj 446 116 bng 15 250 50 0 empty empty empty 17 7 0 10 -262144
-1 -1;
#X obj 265 359 udpsend;
#X obj 34 19 loadbang;
#X obj 16 60 bng 15 250 50 0 empty empty empty 17 7 0 10 -262144 -1
-1;
#X msg 36 116 connect localhost 9001;
#X msg 128 139 disconnect;
#X text 293 7 MIDI in;
#X text 54 96 OSC setup;
#X obj 388 129 t b f;
#X obj 316 235 pack 0 0;
#X msg 322 270 send /spd/in \$1 \$2;
#X obj 393 297 print;
#X obj 17 202 s prev_note;
#X msg 16 174 0;
#X obj 316 97 r prev_note;
#X obj 316 157 !=;
#X obj 317 180 tgl 15 0 empty empty empty 17 7 0 10 -262144 -1 -1 0
1;
#X obj 330 203 spigot;
#X obj 316 119 print;
#X obj 253 74 t f f f;
#X obj 226 126 s prev_note;
#X connect 0 0 7 0;
#X connect 1 0 2 0;
#X connect 1 1 5 0;
#X connect 1 2 3 0;
#X connect 2 0 25 0;
#X connect 4 0 6 0;
#X connect 4 0 14 0;
#X connect 5 1 4 0;
#X connect 8 0 9 0;
#X connect 9 0 10 0;
#X connect 9 0 19 0;
#X connect 10 0 7 0;
#X connect 11 0 7 0;
#X connect 14 0 23 0;
#X connect 14 1 15 1;
#X connect 15 0 16 0;
#X connect 16 0 0 0;
#X connect 16 0 17 0;
#X connect 19 0 18 0;
#X connect 20 0 21 1;
#X connect 20 0 24 0;
#X connect 21 0 22 0;
#X connect 22 0 23 1;
#X connect 23 0 15 0;
#X connect 25 0 26 0;
#X connect 25 1 15 0;
#X connect 25 2 21 0;
