#N canvas 245 23 961 694 10;
#X obj 38 188 soundfiler;
#X obj 550 158 openpanel;
#X floatatom 38 210 5 0 0 0 - - -;
#N canvas 0 22 450 278 (subpatch) 0;
#X array \$0-arr1 88000 float 2;
#X coords 0 1 87999 -1 200 140 1 0 0;
#X restore 267 94 graph;
#X obj 191 359 keyup;
#X floatatom 191 390 5 0 0 0 - - -;
#X obj 183 420 == 49;
#X obj 635 505 / 100;
#X floatatom 634 533 5 0 0 0 - - -;
#X obj 454 408 bng 15 250 50 0 empty empty empty 17 7 0 10 -262144
-1 -1;
#X text 633 426 randomize velocity;
#X text 135 81 read in the samples;
#X obj 224 420 == 50;
#X obj 266 419 == 51;
#X obj 310 417 == 52;
#X obj 60 610 dac~ 1;
#X obj 497 606 dac~ 4;
#X text 637 605 <-- diff channels to soundflower 64ch out;
#X msg 548 77 \; pd dsp 1;
#X msg 549 115 \; pd dsp 0;
#X msg 39 127 read cracksnare.wav \$1;
#X obj 28 71 bng 15 250 50 0 empty empty empty 17 7 0 10 -262144 -1
-1;
#X obj 32 96 symbol \$0-arr1;
#X obj 454 440 symbol \$0-arr1;
#X obj 63 575 trigonoco-condplayer;
#X obj 197 606 dac~ 2;
#X obj 335 605 dac~ 3;
#X obj 338 577 trigonoco-condplayer;
#X obj 197 576 trigonoco-condplayer;
#X obj 109 610 bng 15 250 50 0 empty empty empty 17 7 0 10 -262144
-1 -1;
#X obj 496 580 trigonoco-condplayer;
#X obj 252 606 bng 15 250 50 0 empty empty empty 17 7 0 10 -262144
-1 -1;
#X obj 387 606 bng 15 250 50 0 empty empty empty 17 7 0 10 -262144
-1 -1;
#X obj 549 607 bng 15 250 50 0 empty empty empty 17 7 0 10 -262144
-1 -1;
#X text 669 626 TODO: use args in abstraction?;
#X obj 713 255 metro;
#X obj 31 -18 loadbang;
#X obj 740 25 vsl 15 100 30 300 0 0 empty empty empty 0 -9 0 10 -262144
-1 -1 9900 1;
#X floatatom 777 162 5 0 0 0 - - -;
#X msg 880 21 60;
#X obj 699 23 tgl 15 0 empty empty empty 17 7 0 10 -262144 -1 -1 0
1;
#X floatatom 741 219 5 0 0 0 - - -;
#X obj 744 191 /;
#X msg 727 163 60000;
#X text 761 28 BPM control;
#X text 615 23 metro on/off;
#X obj 714 344 random 4;
#X obj 714 367 + 49;
#X obj 550 183 line;
#X obj 713 277 random 100;
#X obj 713 299 moses 50;
#X obj 713 321 bang;
#X text 787 198 to ms;
#X text 780 307 rand rhythm + channel;
#X text 625 -12 === AUTOMATICALLY trigger samples with metro ===;
#X text 91 329 === MANUALLY trigger samples with key press (1-4) ===
;
#X obj 202 267 pack;
#X obj 20 427 pack b s f;
#X obj 21 455 pack 49 50 51 52;
#X floatatom 769 478 5 0 0 0 - - -;
#X text 770 427 velocity max;
#X msg 769 444 10;
#X obj 634 475 + 1;
#X obj 634 453 random 99;
#X msg 803 444 99;
#X connect 0 0 2 0;
#X connect 4 0 5 0;
#X connect 4 0 9 0;
#X connect 5 0 6 0;
#X connect 5 0 12 0;
#X connect 5 0 13 0;
#X connect 5 0 14 0;
#X connect 6 0 24 1;
#X connect 7 0 8 0;
#X connect 8 0 24 3;
#X connect 8 0 27 3;
#X connect 8 0 28 3;
#X connect 8 0 30 3;
#X connect 9 0 23 0;
#X connect 9 0 24 0;
#X connect 9 0 27 0;
#X connect 9 0 28 0;
#X connect 9 0 30 0;
#X connect 9 0 63 0;
#X connect 12 0 28 1;
#X connect 13 0 27 1;
#X connect 14 0 30 1;
#X connect 20 0 0 0;
#X connect 21 0 22 0;
#X connect 22 0 20 0;
#X connect 23 0 24 2;
#X connect 23 0 27 2;
#X connect 23 0 28 2;
#X connect 23 0 30 2;
#X connect 24 0 15 0;
#X connect 24 1 29 0;
#X connect 27 0 26 0;
#X connect 27 1 32 0;
#X connect 28 0 25 0;
#X connect 28 1 31 0;
#X connect 30 0 16 0;
#X connect 30 1 33 0;
#X connect 35 0 49 0;
#X connect 36 0 21 0;
#X connect 36 0 18 0;
#X connect 36 0 39 0;
#X connect 37 0 38 0;
#X connect 37 0 43 0;
#X connect 38 0 42 1;
#X connect 39 0 37 0;
#X connect 40 0 35 0;
#X connect 41 0 35 1;
#X connect 42 0 41 0;
#X connect 43 0 42 0;
#X connect 46 0 47 0;
#X connect 47 0 5 0;
#X connect 47 0 9 0;
#X connect 49 0 50 0;
#X connect 50 0 51 0;
#X connect 51 0 46 0;
#X connect 59 0 63 1;
#X connect 61 0 59 0;
#X connect 62 0 7 0;
#X connect 63 0 62 0;
#X connect 64 0 59 0;
