#N canvas 292 120 927 707 10;
#X obj 45 124 soundfiler;
#X obj 108 87 openpanel;
#X floatatom 45 146 5 0 0 0 - - -;
#N canvas 0 22 450 278 (subpatch) 0;
#X array trigonoco-arr1 88000 float 2;
#X coords 0 1 87999 -1 200 140 1 0 0;
#X restore 274 30 graph;
#X obj 45 430 bng 15 250 50 0 empty empty empty 17 7 0 10 -262144 -1
-1;
#X obj 42 481 tabplay~ trigonoco-arr1;
#X obj 199 276 keyup;
#X floatatom 199 307 5 0 0 0 - - -;
#X obj 191 337 == 49;
#X obj 185 378 spigot;
#X obj 642 408 / 100;
#X floatatom 642 430 5 0 0 0 - - -;
#X obj 642 386 random 100;
#X obj 462 325 bng 15 250 50 0 empty empty empty 17 7 0 10 -262144
-1 -1;
#X obj 103 518 *~;
#X text 641 363 randomize velocity;
#X text 49 23 read in the samples;
#X obj 232 337 == 50;
#X obj 274 336 == 51;
#X obj 318 334 == 52;
#X obj 232 378 spigot;
#X obj 279 379 spigot;
#X obj 327 380 spigot;
#X obj 234 421 bng 15 250 50 0 empty empty empty 17 7 0 10 -262144
-1 -1;
#X obj 364 424 bng 15 250 50 0 empty empty empty 17 7 0 10 -262144
-1 -1;
#X obj 546 430 bng 15 250 50 0 empty empty empty 17 7 0 10 -262144
-1 -1;
#X obj 203 480 tabplay~ trigonoco-arr1;
#X obj 264 517 *~;
#X obj 365 480 tabplay~ trigonoco-arr1;
#X obj 426 517 *~;
#X obj 537 479 tabplay~ trigonoco-arr1;
#X obj 598 516 *~;
#X obj 87 607 dac~ 1;
#X obj 248 606 dac~ 2;
#X obj 410 606 dac~ 3;
#X obj 582 605 dac~ 4;
#X msg 34 49 read cracksnare.wav trigonoco-arr1;
#X text 74 354 TODO: abstract this;
#X text 692 495 TODO: abstract this too;
#X text 656 605 <-- diff channels to soundflower 64ch out;
#X text 123 258 MANUALLY trigger samples with key press;
#X text 660 253 TODO: AUTO triggering with metro;
#X connect 0 0 2 0;
#X connect 4 0 5 0;
#X connect 5 0 14 0;
#X connect 6 0 7 0;
#X connect 6 0 13 0;
#X connect 7 0 8 0;
#X connect 7 0 17 0;
#X connect 7 0 18 0;
#X connect 7 0 19 0;
#X connect 8 0 9 1;
#X connect 9 0 4 0;
#X connect 10 0 11 0;
#X connect 11 0 14 1;
#X connect 11 0 27 1;
#X connect 11 0 29 1;
#X connect 11 0 31 1;
#X connect 12 0 10 0;
#X connect 13 0 12 0;
#X connect 13 0 9 0;
#X connect 13 0 20 0;
#X connect 13 0 21 0;
#X connect 13 0 22 0;
#X connect 14 0 32 0;
#X connect 17 0 20 1;
#X connect 18 0 21 1;
#X connect 19 0 22 1;
#X connect 20 0 23 0;
#X connect 21 0 24 0;
#X connect 22 0 25 0;
#X connect 23 0 26 0;
#X connect 24 0 28 0;
#X connect 25 0 30 0;
#X connect 26 0 27 0;
#X connect 27 0 33 0;
#X connect 28 0 29 0;
#X connect 29 0 34 0;
#X connect 30 0 31 0;
#X connect 31 0 35 0;
#X connect 36 0 0 0;
