#N canvas 726 140 1425 774 10;
#X obj 12 147 soundfiler;
#X floatatom 11 172 5 0 0 0 - - -;
#N canvas 0 22 450 278 (subpatch) 0;
#X array \$0-arr1 88000 float 2;
#X coords 0 1 87999 -1 200 140 1 0 0;
#X restore 389 31 graph;
#X obj 191 359 keyup;
#X floatatom 191 390 5 0 0 0 - - -;
#X obj 183 420 == 49;
#X obj 1188 479 / 100;
#X floatatom 1183 499 5 0 0 0 - - -;
#X obj 477 413 bng 15 250 50 0 empty empty empty 17 7 0 10 -262144
-1 -1;
#X text 1182 392 randomize velocity;
#X text 27 52 read in the samples;
#X obj 224 420 == 50;
#X obj 266 419 == 51;
#X obj 307 417 == 52;
#X obj 89 690 dac~ 1;
#X msg 90 8 \; pd dsp 1;
#X msg 157 8 \; pd dsp 0;
#X obj 11 77 bng 15 250 50 0 empty empty empty 17 7 0 10 -262144 -1
-1;
#X obj 11 99 symbol \$0-arr1;
#X obj 58 534 symbol \$0-arr1;
#X obj 63 575 trigonoco-condplayer;
#X obj 338 577 trigonoco-condplayer;
#X obj 197 576 trigonoco-condplayer;
#X obj 109 610 bng 15 250 50 0 empty empty empty 17 7 0 10 -262144
-1 -1;
#X obj 496 580 trigonoco-condplayer;
#X obj 252 606 bng 15 250 50 0 empty empty empty 17 7 0 10 -262144
-1 -1;
#X obj 387 606 bng 15 250 50 0 empty empty empty 17 7 0 10 -262144
-1 -1;
#X obj 549 607 bng 15 250 50 0 empty empty empty 17 7 0 10 -262144
-1 -1;
#X obj 1191 248 metro;
#X obj 31 -18 loadbang;
#X obj 1218 18 vsl 15 100 30 300 0 0 empty empty empty 0 -9 0 10 -262144
-1 -1 1100 1;
#X floatatom 1255 155 5 0 0 0 - - -;
#X msg 1358 14 60;
#X obj 1177 16 tgl 15 0 empty empty empty 17 7 0 10 -262144 -1 -1 0
1;
#X floatatom 1219 212 5 0 0 0 - - -;
#X obj 1222 184 /;
#X msg 1205 156 60000;
#X text 1239 21 BPM control;
#X text 1093 16 metro on/off;
#X obj 1192 337 random 4;
#X obj 1192 360 + 49;
#X obj 1191 270 random 100;
#X obj 1191 314 bang;
#X text 1265 191 to ms;
#X text 1258 300 rand rhythm + channel;
#X text 1103 -19 === AUTOMATICALLY trigger samples with metro ===;
#X obj 228 16 pack;
#X obj 20 427 pack b s f;
#X obj 21 455 pack 49 50 51 52;
#X floatatom 1318 444 5 0 0 0 - - -;
#X text 1319 393 velocity max;
#X msg 1318 410 10;
#X obj 1173 413 random 99;
#X msg 1352 410 99;
#X text 64 334 === MANUALLY trigger samples with key press (1-6) ===
;
#X msg 11 124 read 1.wav \$1;
#N canvas 0 22 450 278 (subpatch) 0;
#X array \$0-arr4 88000 float 2;
#X coords 0 1 87999 -1 200 140 1 0 0;
#X restore 386 190 graph;
#N canvas 0 22 450 278 (subpatch) 0;
#X array \$0-arr2 88000 float 2;
#X coords 0 1 87999 -1 200 140 1 0 0;
#X restore 603 29 graph;
#N canvas 0 22 450 278 (subpatch) 0;
#X array \$0-arr3 88000 float 2;
#X coords 0 1 87999 -1 200 140 1 0 0;
#X restore 829 26 graph;
#N canvas 0 22 450 278 (subpatch) 0;
#X array \$0-arr6 88000 float 2;
#X coords 0 1 87999 -1 200 140 1 0 0;
#X restore 837 186 graph;
#N canvas 0 22 450 278 (subpatch) 0;
#X array \$0-arr5 88000 float 2;
#X coords 0 1 87999 -1 200 140 1 0 0;
#X restore 607 191 graph;
#X obj 109 146 soundfiler;
#X floatatom 108 171 5 0 0 0 - - -;
#X obj 210 145 soundfiler;
#X floatatom 209 170 5 0 0 0 - - -;
#X obj 9 252 soundfiler;
#X floatatom 8 277 5 0 0 0 - - -;
#X obj 107 251 soundfiler;
#X floatatom 106 276 5 0 0 0 - - -;
#X obj 213 249 soundfiler;
#X floatatom 212 274 5 0 0 0 - - -;
#X obj 108 98 symbol \$0-arr2;
#X msg 108 123 read 2.wav \$1;
#X obj 209 97 symbol \$0-arr3;
#X msg 209 122 read 3.wav \$1;
#X obj 8 204 symbol \$0-arr4;
#X msg 8 229 read 4.wav \$1;
#X obj 106 203 symbol \$0-arr5;
#X msg 106 228 read 5.wav \$1;
#X obj 212 201 symbol \$0-arr6;
#X msg 212 226 read 6.wav \$1;
#X obj 203 536 symbol \$0-arr2;
#X obj 337 536 symbol \$0-arr3;
#X obj 509 532 symbol \$0-arr4;
#X text 999 606 TODO: use args in abstraction!!;
#X obj 688 516 symbol \$0-arr5;
#X obj 666 585 trigonoco-condplayer;
#X obj 781 610 bng 15 250 50 0 empty empty empty 17 7 0 10 -262144
-1 -1;
#X obj 351 417 == 53;
#X obj 394 414 == 54;
#X obj 835 510 symbol \$0-arr6;
#X obj 825 584 trigonoco-condplayer;
#X obj 945 613 bng 15 250 50 0 empty empty empty 17 7 0 10 -262144
-1 -1;
#X text 967 585 <-- diff samples to the same model;
#X text 622 -12 FOR TRIGGERING MULTIPLE REGIONS ON THE SAME CHANNEL
;
#X obj 1350 570 vsl 15 128 0 100 0 0 empty empty empty 0 -9 0 10 -262144
-1 -1 7200 1;
#X floatatom 1274 612 5 0 0 0 - - -;
#X obj 1055 422 spigot;
#X obj 1089 394 tgl 15 0 empty empty empty 17 7 0 10 -262144 -1 -1
0 1;
#X obj 1139 457 * 10;
#X text 949 396 turn random vel on/off;
#X text 1221 545 === set velocity using slider ===;
#X obj 1187 435 + 40;
#X obj 1191 292 moses 75;
#X obj 1150 292 bng 15 250 50 0 empty empty empty 17 7 0 10 -262144
-1 -1;
#X text 111 -18 remember to set velocity > 0;
#X connect 0 0 1 0;
#X connect 3 0 4 0;
#X connect 3 0 8 0;
#X connect 4 0 5 0;
#X connect 4 0 11 0;
#X connect 4 0 12 0;
#X connect 4 0 13 0;
#X connect 4 0 88 0;
#X connect 4 0 89 0;
#X connect 5 0 20 1;
#X connect 6 0 7 0;
#X connect 7 0 20 3;
#X connect 7 0 21 3;
#X connect 7 0 22 3;
#X connect 7 0 24 3;
#X connect 7 0 86 3;
#X connect 7 0 91 3;
#X connect 8 0 19 0;
#X connect 8 0 20 0;
#X connect 8 0 21 0;
#X connect 8 0 22 0;
#X connect 8 0 24 0;
#X connect 8 0 81 0;
#X connect 8 0 82 0;
#X connect 8 0 83 0;
#X connect 8 0 86 0;
#X connect 8 0 91 0;
#X connect 8 0 85 0;
#X connect 8 0 90 0;
#X connect 8 0 97 0;
#X connect 11 0 22 1;
#X connect 12 0 21 1;
#X connect 13 0 24 1;
#X connect 17 0 18 0;
#X connect 17 0 71 0;
#X connect 17 0 73 0;
#X connect 17 0 75 0;
#X connect 17 0 77 0;
#X connect 17 0 79 0;
#X connect 18 0 55 0;
#X connect 19 0 20 2;
#X connect 20 0 14 0;
#X connect 20 1 23 0;
#X connect 21 0 14 0;
#X connect 21 1 26 0;
#X connect 22 0 14 0;
#X connect 22 1 25 0;
#X connect 24 0 14 0;
#X connect 24 1 27 0;
#X connect 28 0 41 0;
#X connect 29 0 17 0;
#X connect 29 0 15 0;
#X connect 29 0 32 0;
#X connect 30 0 31 0;
#X connect 30 0 36 0;
#X connect 31 0 35 1;
#X connect 32 0 30 0;
#X connect 33 0 28 0;
#X connect 34 0 28 1;
#X connect 35 0 34 0;
#X connect 36 0 35 0;
#X connect 39 0 40 0;
#X connect 40 0 4 0;
#X connect 40 0 8 0;
#X connect 41 0 103 0;
#X connect 42 0 39 0;
#X connect 49 0 52 1;
#X connect 51 0 49 0;
#X connect 52 0 102 0;
#X connect 53 0 49 0;
#X connect 55 0 0 0;
#X connect 61 0 62 0;
#X connect 63 0 64 0;
#X connect 65 0 66 0;
#X connect 67 0 68 0;
#X connect 69 0 70 0;
#X connect 71 0 72 0;
#X connect 72 0 61 0;
#X connect 73 0 74 0;
#X connect 74 0 63 0;
#X connect 75 0 76 0;
#X connect 76 0 65 0;
#X connect 77 0 78 0;
#X connect 78 0 67 0;
#X connect 79 0 80 0;
#X connect 80 0 69 0;
#X connect 81 0 22 2;
#X connect 82 0 21 2;
#X connect 83 0 24 2;
#X connect 85 0 86 2;
#X connect 86 0 14 0;
#X connect 86 1 87 0;
#X connect 88 0 86 1;
#X connect 89 0 91 1;
#X connect 90 0 91 2;
#X connect 91 0 14 0;
#X connect 91 1 92 0;
#X connect 95 0 96 0;
#X connect 96 0 102 0;
#X connect 97 0 52 0;
#X connect 98 0 97 1;
#X connect 99 0 6 0;
#X connect 102 0 99 0;
#X connect 103 0 42 0;
#X connect 103 0 104 0;
