#N canvas 456 121 927 707 10;
#X obj 45 124 soundfiler;
#X obj 557 94 openpanel;
#X floatatom 45 146 5 0 0 0 - - -;
#N canvas 0 22 450 278 (subpatch) 0;
#X array \$0-arr1 88000 float 2;
#X coords 0 1 87999 -1 200 140 1 0 0;
#X restore 274 30 graph;
#X obj 199 276 keyup;
#X floatatom 199 307 5 0 0 0 - - -;
#X obj 191 337 == 49;
#X obj 642 408 / 100;
#X floatatom 642 430 5 0 0 0 - - -;
#X obj 642 386 random 100;
#X obj 462 325 bng 15 250 50 0 empty empty empty 17 7 0 10 -262144
-1 -1;
#X text 641 363 randomize velocity;
#X text 142 17 read in the samples;
#X obj 232 337 == 50;
#X obj 274 336 == 51;
#X obj 318 334 == 52;
#X obj 68 527 dac~ 1;
#X obj 505 523 dac~ 4;
#X text 645 522 <-- diff channels to soundflower 64ch out;
#X text 123 258 MANUALLY trigger samples with key press;
#X text 660 253 TODO: AUTO triggering with metro;
#X msg 555 13 \; pd dsp 1;
#X msg 556 51 \; pd dsp 0;
#X msg 46 63 read cracksnare.wav \$1;
#X obj 35 7 bng 15 250 50 0 empty empty empty 17 7 0 10 -262144 -1
-1;
#X obj 39 32 symbol \$0-arr1;
#X obj 462 357 symbol \$0-arr1;
#X obj 71 492 trigonoco-condplayer;
#X obj 205 523 dac~ 2;
#X obj 343 522 dac~ 3;
#X obj 346 494 trigonoco-condplayer;
#X obj 205 493 trigonoco-condplayer;
#X obj 117 527 bng 15 250 50 0 empty empty empty 17 7 0 10 -262144
-1 -1;
#X obj 504 497 trigonoco-condplayer;
#X obj 260 523 bng 15 250 50 0 empty empty empty 17 7 0 10 -262144
-1 -1;
#X obj 395 523 bng 15 250 50 0 empty empty empty 17 7 0 10 -262144
-1 -1;
#X obj 557 524 bng 15 250 50 0 empty empty empty 17 7 0 10 -262144
-1 -1;
#X text 677 543 TODO: use args in abstraction?;
#X connect 0 0 2 0;
#X connect 4 0 5 0;
#X connect 4 0 10 0;
#X connect 5 0 6 0;
#X connect 5 0 13 0;
#X connect 5 0 14 0;
#X connect 5 0 15 0;
#X connect 6 0 27 1;
#X connect 7 0 8 0;
#X connect 8 0 27 3;
#X connect 8 0 30 3;
#X connect 8 0 31 3;
#X connect 8 0 33 3;
#X connect 9 0 7 0;
#X connect 10 0 9 0;
#X connect 10 0 26 0;
#X connect 10 0 27 0;
#X connect 10 0 30 0;
#X connect 10 0 31 0;
#X connect 10 0 33 0;
#X connect 13 0 31 1;
#X connect 14 0 30 1;
#X connect 15 0 33 1;
#X connect 23 0 0 0;
#X connect 24 0 25 0;
#X connect 25 0 23 0;
#X connect 26 0 27 2;
#X connect 26 0 30 2;
#X connect 26 0 31 2;
#X connect 26 0 33 2;
#X connect 27 0 16 0;
#X connect 27 1 32 0;
#X connect 30 0 29 0;
#X connect 30 1 35 0;
#X connect 31 0 28 0;
#X connect 31 1 34 0;
#X connect 33 0 17 0;
#X connect 33 1 36 0;
