#N canvas 137 189 450 300 10;
#X obj 74 27 inlet;
#X obj 144 27 inlet;
#X obj 225 28 inlet;
#X text 68 8 1: bang;
#X text 221 7 3: array name;
#X obj 343 27 inlet;
#X text 330 9 4: velocity;
#X obj 91 239 outlet~;
#X obj 92 73 spigot;
#X obj 92 102 bng 15 250 50 0 empty empty empty 17 7 0 10 -262144 -1
-1;
#X msg 225 56 set \$1;
#X obj 95 144 tabplay~ \$0-arr1;
#X obj 95 186 *~;
#X text 129 6 2: gate (1/0);
#X obj 239 238 outlet;
#X connect 0 0 8 0;
#X connect 1 0 8 1;
#X connect 2 0 10 0;
#X connect 5 0 12 1;
#X connect 8 0 9 0;
#X connect 9 0 11 0;
#X connect 9 0 14 0;
#X connect 10 0 11 0;
#X connect 11 0 12 0;
#X connect 12 0 7 0;
