#N canvas 24 98 968 453 10;
#X obj 132 316 makenote;
#X floatatom 132 347 5 0 0 0 - - -;
#X floatatom 190 347 5 0 0 0 - - -;
#X msg 223 386 0;
#X obj 91 162 bng 15 250 50 0 empty empty empty 17 7 0 10 -262144 -1
-1;
#X obj 147 66 tgl 15 0 empty empty empty 17 7 0 10 -262144 -1 -1 0
1;
#X floatatom 184 87 5 0 0 0 - - -;
#X msg 226 86 25;
#X text 50 230 note;
#X text 146 197 velocity;
#X text 269 229 duration;
#X text 144 46 toggle auto-trigger;
#X text 19 47 manually trigger;
#X msg 82 227 0;
#X obj 146 224 random 126;
#X floatatom 146 268 5 0 0 0 - - -;
#X msg 470 349 0;
#X obj 582 72 tgl 15 0 empty empty empty 17 7 0 10 -262144 -1 -1 0
1;
#X text 76 12 ==== NOTE ON/OFF ====;
#X text 414 11 ==== CTRL CHANGE ====;
#X obj 149 110 metro 50;
#X obj 426 286 + 1;
#X floatatom 426 308 5 0 0 0 - - -;
#X msg 524 71 0;
#X obj 467 67 bng 15 250 50 0 empty empty empty 17 7 0 10 -262144 -1
-1;
#X floatatom 414 353 5 0 0 0 - - -;
#X obj 426 264 f 0;
#X text 467 331 ctrl num;
#X msg 521 346 0;
#X text 386 242 ctrl value (increments by one);
#X obj 582 108 metro 5;
#X obj 159 408 noteout 0 0;
#X obj 420 400 ctlout 0 0;
#X text 552 347 channel num;
#X text 255 386 channel num;
#X text 584 55 toggle auto;
#X text 522 48 reset;
#X text 434 48 trigger one;
#X floatatom 365 71 5 0 127 0 - - -;
#X obj 367 92 abs;
#X obj 426 327 % 127;
#X text 332 48 "knob"/slider;
#X obj 146 246 + 1;
#X obj 754 391 pgmout 0;
#X msg 805 351 0;
#X floatatom 754 349 5 0 0 0 - - -;
#X obj 755 301 random 20;
#X obj 758 71 bng 15 250 50 0 empty empty empty 17 7 0 10 -262144 -1
-1;
#X text 737 10 ==== PRGM CHANGE ====;
#X text 732 52 trigger rand;
#X floatatom 842 71 5 0 0 0 - - -;
#X text 830 51 trigger specific;
#X text 697 347 prgm num;
#X text 838 353 channel num;
#X msg 648 83 25;
#X msg 235 231 1000;
#X obj 65 65 keyup;
#X obj 65 87 == 32;
#X text 8 88 spacebar;
#X obj 69 123 spigot;
#X connect 0 0 1 0;
#X connect 0 1 2 0;
#X connect 1 0 31 0;
#X connect 2 0 31 1;
#X connect 3 0 31 2;
#X connect 4 0 13 0;
#X connect 4 0 14 0;
#X connect 4 0 55 0;
#X connect 5 0 20 0;
#X connect 6 0 20 1;
#X connect 7 0 20 1;
#X connect 13 0 0 0;
#X connect 14 0 42 0;
#X connect 15 0 0 1;
#X connect 16 0 32 1;
#X connect 17 0 30 0;
#X connect 20 0 4 0;
#X connect 21 0 22 0;
#X connect 21 0 26 1;
#X connect 22 0 40 0;
#X connect 23 0 26 1;
#X connect 24 0 26 0;
#X connect 24 0 16 0;
#X connect 25 0 32 0;
#X connect 26 0 21 0;
#X connect 28 0 32 2;
#X connect 30 0 24 0;
#X connect 38 0 39 0;
#X connect 39 0 25 0;
#X connect 40 0 25 0;
#X connect 42 0 15 0;
#X connect 44 0 43 1;
#X connect 45 0 43 0;
#X connect 46 0 45 0;
#X connect 47 0 46 0;
#X connect 50 0 45 0;
#X connect 54 0 30 1;
#X connect 55 0 0 2;
#X connect 56 0 57 0;
#X connect 57 0 59 1;
#X connect 57 0 59 0;
#X connect 59 0 4 0;
