#N canvas 520 156 700 541 12;
#X obj 268 13 inlet;
#X obj 265 53 bng 15 250 50 0 empty empty empty 17 7 0 10 -262144 -1
-1;
#X obj 259 78 random 5;
#X obj 255 110 sel 0 1 2 3 4;
#X msg 189 173 0;
#X msg 247 174 3;
#X msg 302 173 5;
#X msg 349 173 7;
#X msg 392 175 10;
#X floatatom 276 252 5 0 0 0 - - -;
#X floatatom 461 83 5 0 0 0 - - -;
#X obj 461 58 random 2;
#X obj 461 105 sel 0 1;
#X floatatom 276 320 5 0 0 0 - - -;
#X text 538 54 multiply/octave;
#X text 97 144 minor pent;
#X obj 275 482 outlet;
#X obj 470 150 bng 15 250 50 0 empty empty empty 17 7 0 10 -262144
-1 -1;
#X obj 530 143 bng 15 250 50 0 empty empty empty 17 7 0 10 -262144
-1 -1;
#X obj 277 361 mtof;
#X msg 479 180 60;
#X msg 528 179 72;
#X obj 276 289 + 60;
#X floatatom 279 389 5 0 0 0 - - -;
#X obj 279 411 / 60;
#X floatatom 279 436 5 0 0 0 - - -;
#X text 344 381 convert midi to freq \, then divide to make tiny delay
vals;
#X connect 0 0 1 0;
#X connect 1 0 2 0;
#X connect 1 0 11 0;
#X connect 2 0 3 0;
#X connect 3 0 4 0;
#X connect 3 1 5 0;
#X connect 3 2 6 0;
#X connect 3 3 7 0;
#X connect 3 4 8 0;
#X connect 4 0 9 0;
#X connect 5 0 9 0;
#X connect 6 0 9 0;
#X connect 7 0 9 0;
#X connect 8 0 9 0;
#X connect 9 0 22 0;
#X connect 10 0 12 0;
#X connect 11 0 10 0;
#X connect 12 0 17 0;
#X connect 12 1 18 0;
#X connect 13 0 19 0;
#X connect 17 0 20 0;
#X connect 18 0 21 0;
#X connect 19 0 23 0;
#X connect 20 0 22 1;
#X connect 21 0 22 1;
#X connect 22 0 13 0;
#X connect 23 0 24 0;
#X connect 24 0 25 0;
#X connect 25 0 16 0;
